# xmcd
#
# Track frame offsets:
#	150
#	14092
#	24440
#	34082
#	44975
#	59867
#	69802
#	85752
#	99380
#	111907
#	126022
#	138045
#	148742
#	160160
#	173157
#	185722
#	197590
#	209857
#	223100
#	234027
#	247265
#	257130
#	269735
#	283535
#	296592
#	308917
# Disc length: 4294 seconds
# Revision: 2
# Processed by: cddbd v1.5.1PL0 Copyright (c) Steve Scherf et al.
#
# Submitted via: libkcddb 0.10
#
DISCID=9b10c41a
DTITLE=Orioles - The Jubilee Recordings [CD 3)
DYEAR=1900
DGENRE=Unknown
TTITLE0=I'm Just A Fool In Love
TTITLE1=Barfly
TTITLE2=Hold Me! Squeeze Me!
TTITLE3=Baby, Please Don't Go
TTITLE4=Don't Tell Her What's Happened To Me
TTITLE5=I May Be Wrong
TTITLE6=Fool's World
TTITLE7=You Never Cared For Me
TTITLE8=For All We Know
TTITLE9=Blame It On Yourself
TTITLE10=How Blind Can You Be
TTITLE11=When You're Not Around
TTITLE12=Waiting
TTITLE13=My Loved One
TTITLE14=Shrimp Boats
TTITLE15=Trust In Me
TTITLE16=A Scandal
TTITLE17=It's Over Because We're Through
TTITLE18=It Ain't Gonna Be Like That
TTITLE19=Gettin' Tired, Tired, Tired
TTITLE20=Pretty, Pretty Rain
TTITLE21=Why Did You Go
TTITLE22=This I'll Do My Darling
TTITLE23=Proud Of You
TTITLE24=No Other Love
TTITLE25=The Night Has Come
EXTD=
EXTT0=
EXTT1=
EXTT2=
EXTT3=
EXTT4=
EXTT5=
EXTT6=
EXTT7=
EXTT8=
EXTT9=
EXTT10=
EXTT11=
EXTT12=
EXTT13=
EXTT14=
EXTT15=
EXTT16=
EXTT17=
EXTT18=
EXTT19=
EXTT20=
EXTT21=
EXTT22=
EXTT23=
EXTT24=
EXTT25=
PLAYORDER=
